<svg xmlns="http://www.w3.org/2000/svg" viewBox="0 0 1200 420" width="100%" preserveAspectRatio="xMidYMid meet" role="img" aria-label="QAOA ansatz">
<defs>
<linearGradient id="bg" x1="0" y1="0" x2="1" y2="1"><stop offset="0%" stop-color="#0B0B16"/><stop offset="60%" stop-color="#11101F"/><stop offset="100%" stop-color="#0B0B16"/></linearGradient>
<linearGradient id="cost" x1="0" y1="0" x2="0" y2="1"><stop offset="0%" stop-color="#7C3AED"/><stop offset="100%" stop-color="#5B21B6"/></linearGradient>
<linearGradient id="mix" x1="0" y1="0" x2="0" y2="1"><stop offset="0%" stop-color="#22D3EE"/><stop offset="100%" stop-color="#0E7490"/></linearGradient>
<filter id="glow" x="-20%" y="-20%" width="140%" height="140%"><feGaussianBlur stdDeviation="2.2" result="b"/><feMerge><feMergeNode in="b"/><feMergeNode in="SourceGraphic"/></feMerge></filter>
</defs>
<rect width="1200" height="420" fill="url(#bg)"/>
<line x1="250" y1="70.0" x2="1140" y2="70.0" stroke="#2A2440" stroke-width="1.4"/>
<line x1="250" y1="88.7" x2="1140" y2="88.7" stroke="#2A2440" stroke-width="1.4"/>
<line x1="250" y1="107.3" x2="1140" y2="107.3" stroke="#2A2440" stroke-width="1.4"/>
<line x1="250" y1="126.0" x2="1140" y2="126.0" stroke="#2A2440" stroke-width="1.4"/>
<line x1="250" y1="144.7" x2="1140" y2="144.7" stroke="#2A2440" stroke-width="1.4"/>
<line x1="250" y1="163.3" x2="1140" y2="163.3" stroke="#2A2440" stroke-width="1.4"/>
<line x1="250" y1="182.0" x2="1140" y2="182.0" stroke="#2A2440" stroke-width="1.4"/>
<line x1="250" y1="200.7" x2="1140" y2="200.7" stroke="#2A2440" stroke-width="1.4"/>
<line x1="250" y1="219.3" x2="1140" y2="219.3" stroke="#2A2440" stroke-width="1.4"/>
<line x1="250" y1="238.0" x2="1140" y2="238.0" stroke="#2A2440" stroke-width="1.4"/>
<line x1="250" y1="256.7" x2="1140" y2="256.7" stroke="#2A2440" stroke-width="1.4"/>
<line x1="250" y1="275.3" x2="1140" y2="275.3" stroke="#2A2440" stroke-width="1.4"/>
<line x1="250" y1="294.0" x2="1140" y2="294.0" stroke="#2A2440" stroke-width="1.4"/>
<line x1="250" y1="312.7" x2="1140" y2="312.7" stroke="#2A2440" stroke-width="1.4"/>
<line x1="250" y1="331.3" x2="1140" y2="331.3" stroke="#2A2440" stroke-width="1.4"/>
<line x1="250" y1="350.0" x2="1140" y2="350.0" stroke="#2A2440" stroke-width="1.4"/>
<text x="234" y="74.0" fill="#6B6788" font-family="monospace" font-size="11" text-anchor="end">q0</text>
<text x="234" y="92.7" fill="#6B6788" font-family="monospace" font-size="11" text-anchor="end">q1</text>
<text x="234" y="111.3" fill="#6B6788" font-family="monospace" font-size="11" text-anchor="end">q2</text>
<text x="234" y="130.0" fill="#6B6788" font-family="monospace" font-size="11" text-anchor="end">q3</text>
<text x="234" y="148.7" fill="#6B6788" font-family="monospace" font-size="11" text-anchor="end">q4</text>
<text x="234" y="167.3" fill="#6B6788" font-family="monospace" font-size="11" text-anchor="end">q5</text>
<text x="234" y="186.0" fill="#6B6788" font-family="monospace" font-size="11" text-anchor="end">q6</text>
<text x="234" y="204.7" fill="#6B6788" font-family="monospace" font-size="11" text-anchor="end">q7</text>
<text x="234" y="223.3" fill="#6B6788" font-family="monospace" font-size="11" text-anchor="end">q8</text>
<text x="234" y="242.0" fill="#6B6788" font-family="monospace" font-size="11" text-anchor="end">q9</text>
<text x="234" y="260.7" fill="#6B6788" font-family="monospace" font-size="11" text-anchor="end">q10</text>
<text x="234" y="279.3" fill="#6B6788" font-family="monospace" font-size="11" text-anchor="end">q11</text>
<text x="234" y="298.0" fill="#6B6788" font-family="monospace" font-size="11" text-anchor="end">q12</text>
<text x="234" y="316.7" fill="#6B6788" font-family="monospace" font-size="11" text-anchor="end">q13</text>
<text x="234" y="335.3" fill="#6B6788" font-family="monospace" font-size="11" text-anchor="end">q14</text>
<text x="234" y="354.0" fill="#6B6788" font-family="monospace" font-size="11" text-anchor="end">q15</text>
<rect x="278.7" y="61.0" width="41.5" height="18" rx="4" fill="#15152A" stroke="#3A3460" stroke-width="1.2"/>
<rect x="278.7" y="79.7" width="41.5" height="18" rx="4" fill="#15152A" stroke="#3A3460" stroke-width="1.2"/>
<rect x="278.7" y="98.3" width="41.5" height="18" rx="4" fill="#15152A" stroke="#3A3460" stroke-width="1.2"/>
<rect x="278.7" y="117.0" width="41.5" height="18" rx="4" fill="#15152A" stroke="#3A3460" stroke-width="1.2"/>
<rect x="278.7" y="135.7" width="41.5" height="18" rx="4" fill="#15152A" stroke="#3A3460" stroke-width="1.2"/>
<rect x="278.7" y="154.3" width="41.5" height="18" rx="4" fill="#15152A" stroke="#3A3460" stroke-width="1.2"/>
<rect x="278.7" y="173.0" width="41.5" height="18" rx="4" fill="#15152A" stroke="#3A3460" stroke-width="1.2"/>
<rect x="278.7" y="191.7" width="41.5" height="18" rx="4" fill="#15152A" stroke="#3A3460" stroke-width="1.2"/>
<rect x="278.7" y="210.3" width="41.5" height="18" rx="4" fill="#15152A" stroke="#3A3460" stroke-width="1.2"/>
<rect x="278.7" y="229.0" width="41.5" height="18" rx="4" fill="#15152A" stroke="#3A3460" stroke-width="1.2"/>
<rect x="278.7" y="247.7" width="41.5" height="18" rx="4" fill="#15152A" stroke="#3A3460" stroke-width="1.2"/>
<rect x="278.7" y="266.3" width="41.5" height="18" rx="4" fill="#15152A" stroke="#3A3460" stroke-width="1.2"/>
<rect x="278.7" y="285.0" width="41.5" height="18" rx="4" fill="#15152A" stroke="#3A3460" stroke-width="1.2"/>
<rect x="278.7" y="303.7" width="41.5" height="18" rx="4" fill="#15152A" stroke="#3A3460" stroke-width="1.2"/>
<rect x="278.7" y="322.3" width="41.5" height="18" rx="4" fill="#15152A" stroke="#3A3460" stroke-width="1.2"/>
<rect x="278.7" y="341.0" width="41.5" height="18" rx="4" fill="#15152A" stroke="#3A3460" stroke-width="1.2"/>
<text x="299.4" y="40.0" fill="#A78BFA" font-family="monospace" font-size="13" text-anchor="middle">encode</text>
<rect x="377.6" y="62.0" width="41.5" height="16" rx="4" fill="url(#cost)" filter="url(#glow)"/>
<rect x="377.6" y="80.7" width="41.5" height="16" rx="4" fill="url(#cost)" filter="url(#glow)"/>
<rect x="377.6" y="99.3" width="41.5" height="16" rx="4" fill="url(#cost)" filter="url(#glow)"/>
<rect x="377.6" y="118.0" width="41.5" height="16" rx="4" fill="url(#cost)" filter="url(#glow)"/>
<rect x="377.6" y="136.7" width="41.5" height="16" rx="4" fill="url(#cost)" filter="url(#glow)"/>
<rect x="377.6" y="155.3" width="41.5" height="16" rx="4" fill="url(#cost)" filter="url(#glow)"/>
<rect x="377.6" y="174.0" width="41.5" height="16" rx="4" fill="url(#cost)" filter="url(#glow)"/>
<rect x="377.6" y="192.7" width="41.5" height="16" rx="4" fill="url(#cost)" filter="url(#glow)"/>
<rect x="377.6" y="211.3" width="41.5" height="16" rx="4" fill="url(#cost)" filter="url(#glow)"/>
<rect x="377.6" y="230.0" width="41.5" height="16" rx="4" fill="url(#cost)" filter="url(#glow)"/>
<rect x="377.6" y="248.7" width="41.5" height="16" rx="4" fill="url(#cost)" filter="url(#glow)"/>
<rect x="377.6" y="267.3" width="41.5" height="16" rx="4" fill="url(#cost)" filter="url(#glow)"/>
<rect x="377.6" y="286.0" width="41.5" height="16" rx="4" fill="url(#cost)" filter="url(#glow)"/>
<rect x="377.6" y="304.7" width="41.5" height="16" rx="4" fill="url(#cost)" filter="url(#glow)"/>
<rect x="377.6" y="323.3" width="41.5" height="16" rx="4" fill="url(#cost)" filter="url(#glow)"/>
<rect x="377.6" y="342.0" width="41.5" height="16" rx="4" fill="url(#cost)" filter="url(#glow)"/>
<line x1="398.3" y1="70.0" x2="398.3" y2="88.7" stroke="#A78BFA" stroke-width="1.6" opacity="0.7"/>
<line x1="398.3" y1="107.3" x2="398.3" y2="126.0" stroke="#A78BFA" stroke-width="1.6" opacity="0.7"/>
<line x1="398.3" y1="144.7" x2="398.3" y2="163.3" stroke="#A78BFA" stroke-width="1.6" opacity="0.7"/>
<line x1="398.3" y1="182.0" x2="398.3" y2="200.7" stroke="#A78BFA" stroke-width="1.6" opacity="0.7"/>
<line x1="398.3" y1="219.3" x2="398.3" y2="238.0" stroke="#A78BFA" stroke-width="1.6" opacity="0.7"/>
<line x1="398.3" y1="256.7" x2="398.3" y2="275.3" stroke="#A78BFA" stroke-width="1.6" opacity="0.7"/>
<line x1="398.3" y1="294.0" x2="398.3" y2="312.7" stroke="#A78BFA" stroke-width="1.6" opacity="0.7"/>
<line x1="398.3" y1="331.3" x2="398.3" y2="350.0" stroke="#A78BFA" stroke-width="1.6" opacity="0.7"/>
<rect x="476.5" y="62.0" width="41.5" height="16" rx="4" fill="url(#mix)" filter="url(#glow)"/>
<rect x="476.5" y="80.7" width="41.5" height="16" rx="4" fill="url(#mix)" filter="url(#glow)"/>
<rect x="476.5" y="99.3" width="41.5" height="16" rx="4" fill="url(#mix)" filter="url(#glow)"/>
<rect x="476.5" y="118.0" width="41.5" height="16" rx="4" fill="url(#mix)" filter="url(#glow)"/>
<rect x="476.5" y="136.7" width="41.5" height="16" rx="4" fill="url(#mix)" filter="url(#glow)"/>
<rect x="476.5" y="155.3" width="41.5" height="16" rx="4" fill="url(#mix)" filter="url(#glow)"/>
<rect x="476.5" y="174.0" width="41.5" height="16" rx="4" fill="url(#mix)" filter="url(#glow)"/>
<rect x="476.5" y="192.7" width="41.5" height="16" rx="4" fill="url(#mix)" filter="url(#glow)"/>
<rect x="476.5" y="211.3" width="41.5" height="16" rx="4" fill="url(#mix)" filter="url(#glow)"/>
<rect x="476.5" y="230.0" width="41.5" height="16" rx="4" fill="url(#mix)" filter="url(#glow)"/>
<rect x="476.5" y="248.7" width="41.5" height="16" rx="4" fill="url(#mix)" filter="url(#glow)"/>
<rect x="476.5" y="267.3" width="41.5" height="16" rx="4" fill="url(#mix)" filter="url(#glow)"/>
<rect x="476.5" y="286.0" width="41.5" height="16" rx="4" fill="url(#mix)" filter="url(#glow)"/>
<rect x="476.5" y="304.7" width="41.5" height="16" rx="4" fill="url(#mix)" filter="url(#glow)"/>
<rect x="476.5" y="323.3" width="41.5" height="16" rx="4" fill="url(#mix)" filter="url(#glow)"/>
<rect x="476.5" y="342.0" width="41.5" height="16" rx="4" fill="url(#mix)" filter="url(#glow)"/>
<text x="398.3" y="40.0" fill="#A78BFA" font-family="monospace" font-size="12" text-anchor="middle">U_C(g1)</text>
<text x="497.2" y="40.0" fill="#67E8F9" font-family="monospace" font-size="12" text-anchor="middle">U_M(b1)</text>
<rect x="575.3" y="62.0" width="41.5" height="16" rx="4" fill="url(#cost)" filter="url(#glow)"/>
<rect x="575.3" y="80.7" width="41.5" height="16" rx="4" fill="url(#cost)" filter="url(#glow)"/>
<rect x="575.3" y="99.3" width="41.5" height="16" rx="4" fill="url(#cost)" filter="url(#glow)"/>
<rect x="575.3" y="118.0" width="41.5" height="16" rx="4" fill="url(#cost)" filter="url(#glow)"/>
<rect x="575.3" y="136.7" width="41.5" height="16" rx="4" fill="url(#cost)" filter="url(#glow)"/>
<rect x="575.3" y="155.3" width="41.5" height="16" rx="4" fill="url(#cost)" filter="url(#glow)"/>
<rect x="575.3" y="174.0" width="41.5" height="16" rx="4" fill="url(#cost)" filter="url(#glow)"/>
<rect x="575.3" y="192.7" width="41.5" height="16" rx="4" fill="url(#cost)" filter="url(#glow)"/>
<rect x="575.3" y="211.3" width="41.5" height="16" rx="4" fill="url(#cost)" filter="url(#glow)"/>
<rect x="575.3" y="230.0" width="41.5" height="16" rx="4" fill="url(#cost)" filter="url(#glow)"/>
<rect x="575.3" y="248.7" width="41.5" height="16" rx="4" fill="url(#cost)" filter="url(#glow)"/>
<rect x="575.3" y="267.3" width="41.5" height="16" rx="4" fill="url(#cost)" filter="url(#glow)"/>
<rect x="575.3" y="286.0" width="41.5" height="16" rx="4" fill="url(#cost)" filter="url(#glow)"/>
<rect x="575.3" y="304.7" width="41.5" height="16" rx="4" fill="url(#cost)" filter="url(#glow)"/>
<rect x="575.3" y="323.3" width="41.5" height="16" rx="4" fill="url(#cost)" filter="url(#glow)"/>
<rect x="575.3" y="342.0" width="41.5" height="16" rx="4" fill="url(#cost)" filter="url(#glow)"/>
<line x1="596.1" y1="70.0" x2="596.1" y2="88.7" stroke="#A78BFA" stroke-width="1.6" opacity="0.7"/>
<line x1="596.1" y1="107.3" x2="596.1" y2="126.0" stroke="#A78BFA" stroke-width="1.6" opacity="0.7"/>
<line x1="596.1" y1="144.7" x2="596.1" y2="163.3" stroke="#A78BFA" stroke-width="1.6" opacity="0.7"/>
<line x1="596.1" y1="182.0" x2="596.1" y2="200.7" stroke="#A78BFA" stroke-width="1.6" opacity="0.7"/>
<line x1="596.1" y1="219.3" x2="596.1" y2="238.0" stroke="#A78BFA" stroke-width="1.6" opacity="0.7"/>
<line x1="596.1" y1="256.7" x2="596.1" y2="275.3" stroke="#A78BFA" stroke-width="1.6" opacity="0.7"/>
<line x1="596.1" y1="294.0" x2="596.1" y2="312.7" stroke="#A78BFA" stroke-width="1.6" opacity="0.7"/>
<line x1="596.1" y1="331.3" x2="596.1" y2="350.0" stroke="#A78BFA" stroke-width="1.6" opacity="0.7"/>
<rect x="674.2" y="62.0" width="41.5" height="16" rx="4" fill="url(#mix)" filter="url(#glow)"/>
<rect x="674.2" y="80.7" width="41.5" height="16" rx="4" fill="url(#mix)" filter="url(#glow)"/>
<rect x="674.2" y="99.3" width="41.5" height="16" rx="4" fill="url(#mix)" filter="url(#glow)"/>
<rect x="674.2" y="118.0" width="41.5" height="16" rx="4" fill="url(#mix)" filter="url(#glow)"/>
<rect x="674.2" y="136.7" width="41.5" height="16" rx="4" fill="url(#mix)" filter="url(#glow)"/>
<rect x="674.2" y="155.3" width="41.5" height="16" rx="4" fill="url(#mix)" filter="url(#glow)"/>
<rect x="674.2" y="174.0" width="41.5" height="16" rx="4" fill="url(#mix)" filter="url(#glow)"/>
<rect x="674.2" y="192.7" width="41.5" height="16" rx="4" fill="url(#mix)" filter="url(#glow)"/>
<rect x="674.2" y="211.3" width="41.5" height="16" rx="4" fill="url(#mix)" filter="url(#glow)"/>
<rect x="674.2" y="230.0" width="41.5" height="16" rx="4" fill="url(#mix)" filter="url(#glow)"/>
<rect x="674.2" y="248.7" width="41.5" height="16" rx="4" fill="url(#mix)" filter="url(#glow)"/>
<rect x="674.2" y="267.3" width="41.5" height="16" rx="4" fill="url(#mix)" filter="url(#glow)"/>
<rect x="674.2" y="286.0" width="41.5" height="16" rx="4" fill="url(#mix)" filter="url(#glow)"/>
<rect x="674.2" y="304.7" width="41.5" height="16" rx="4" fill="url(#mix)" filter="url(#glow)"/>
<rect x="674.2" y="323.3" width="41.5" height="16" rx="4" fill="url(#mix)" filter="url(#glow)"/>
<rect x="674.2" y="342.0" width="41.5" height="16" rx="4" fill="url(#mix)" filter="url(#glow)"/>
<text x="596.1" y="40.0" fill="#A78BFA" font-family="monospace" font-size="12" text-anchor="middle">U_C(g2)</text>
<text x="695.0" y="40.0" fill="#67E8F9" font-family="monospace" font-size="12" text-anchor="middle">U_M(b2)</text>
<rect x="773.1" y="62.0" width="41.5" height="16" rx="4" fill="url(#cost)" filter="url(#glow)"/>
<rect x="773.1" y="80.7" width="41.5" height="16" rx="4" fill="url(#cost)" filter="url(#glow)"/>
<rect x="773.1" y="99.3" width="41.5" height="16" rx="4" fill="url(#cost)" filter="url(#glow)"/>
<rect x="773.1" y="118.0" width="41.5" height="16" rx="4" fill="url(#cost)" filter="url(#glow)"/>
<rect x="773.1" y="136.7" width="41.5" height="16" rx="4" fill="url(#cost)" filter="url(#glow)"/>
<rect x="773.1" y="155.3" width="41.5" height="16" rx="4" fill="url(#cost)" filter="url(#glow)"/>
<rect x="773.1" y="174.0" width="41.5" height="16" rx="4" fill="url(#cost)" filter="url(#glow)"/>
<rect x="773.1" y="192.7" width="41.5" height="16" rx="4" fill="url(#cost)" filter="url(#glow)"/>
<rect x="773.1" y="211.3" width="41.5" height="16" rx="4" fill="url(#cost)" filter="url(#glow)"/>
<rect x="773.1" y="230.0" width="41.5" height="16" rx="4" fill="url(#cost)" filter="url(#glow)"/>
<rect x="773.1" y="248.7" width="41.5" height="16" rx="4" fill="url(#cost)" filter="url(#glow)"/>
<rect x="773.1" y="267.3" width="41.5" height="16" rx="4" fill="url(#cost)" filter="url(#glow)"/>
<rect x="773.1" y="286.0" width="41.5" height="16" rx="4" fill="url(#cost)" filter="url(#glow)"/>
<rect x="773.1" y="304.7" width="41.5" height="16" rx="4" fill="url(#cost)" filter="url(#glow)"/>
<rect x="773.1" y="323.3" width="41.5" height="16" rx="4" fill="url(#cost)" filter="url(#glow)"/>
<rect x="773.1" y="342.0" width="41.5" height="16" rx="4" fill="url(#cost)" filter="url(#glow)"/>
<line x1="793.9" y1="70.0" x2="793.9" y2="88.7" stroke="#A78BFA" stroke-width="1.6" opacity="0.7"/>
<line x1="793.9" y1="107.3" x2="793.9" y2="126.0" stroke="#A78BFA" stroke-width="1.6" opacity="0.7"/>
<line x1="793.9" y1="144.7" x2="793.9" y2="163.3" stroke="#A78BFA" stroke-width="1.6" opacity="0.7"/>
<line x1="793.9" y1="182.0" x2="793.9" y2="200.7" stroke="#A78BFA" stroke-width="1.6" opacity="0.7"/>
<line x1="793.9" y1="219.3" x2="793.9" y2="238.0" stroke="#A78BFA" stroke-width="1.6" opacity="0.7"/>
<line x1="793.9" y1="256.7" x2="793.9" y2="275.3" stroke="#A78BFA" stroke-width="1.6" opacity="0.7"/>
<line x1="793.9" y1="294.0" x2="793.9" y2="312.7" stroke="#A78BFA" stroke-width="1.6" opacity="0.7"/>
<line x1="793.9" y1="331.3" x2="793.9" y2="350.0" stroke="#A78BFA" stroke-width="1.6" opacity="0.7"/>
<rect x="872.0" y="62.0" width="41.5" height="16" rx="4" fill="url(#mix)" filter="url(#glow)"/>
<rect x="872.0" y="80.7" width="41.5" height="16" rx="4" fill="url(#mix)" filter="url(#glow)"/>
<rect x="872.0" y="99.3" width="41.5" height="16" rx="4" fill="url(#mix)" filter="url(#glow)"/>
<rect x="872.0" y="118.0" width="41.5" height="16" rx="4" fill="url(#mix)" filter="url(#glow)"/>
<rect x="872.0" y="136.7" width="41.5" height="16" rx="4" fill="url(#mix)" filter="url(#glow)"/>
<rect x="872.0" y="155.3" width="41.5" height="16" rx="4" fill="url(#mix)" filter="url(#glow)"/>
<rect x="872.0" y="174.0" width="41.5" height="16" rx="4" fill="url(#mix)" filter="url(#glow)"/>
<rect x="872.0" y="192.7" width="41.5" height="16" rx="4" fill="url(#mix)" filter="url(#glow)"/>
<rect x="872.0" y="211.3" width="41.5" height="16" rx="4" fill="url(#mix)" filter="url(#glow)"/>
<rect x="872.0" y="230.0" width="41.5" height="16" rx="4" fill="url(#mix)" filter="url(#glow)"/>
<rect x="872.0" y="248.7" width="41.5" height="16" rx="4" fill="url(#mix)" filter="url(#glow)"/>
<rect x="872.0" y="267.3" width="41.5" height="16" rx="4" fill="url(#mix)" filter="url(#glow)"/>
<rect x="872.0" y="286.0" width="41.5" height="16" rx="4" fill="url(#mix)" filter="url(#glow)"/>
<rect x="872.0" y="304.7" width="41.5" height="16" rx="4" fill="url(#mix)" filter="url(#glow)"/>
<rect x="872.0" y="323.3" width="41.5" height="16" rx="4" fill="url(#mix)" filter="url(#glow)"/>
<rect x="872.0" y="342.0" width="41.5" height="16" rx="4" fill="url(#mix)" filter="url(#glow)"/>
<text x="793.9" y="40.0" fill="#A78BFA" font-family="monospace" font-size="12" text-anchor="middle">U_C(g3)</text>
<text x="892.8" y="40.0" fill="#67E8F9" font-family="monospace" font-size="12" text-anchor="middle">U_M(b3)</text>
<rect x="970.9" y="62.0" width="41.5" height="16" rx="4" fill="url(#cost)" filter="url(#glow)"/>
<rect x="970.9" y="80.7" width="41.5" height="16" rx="4" fill="url(#cost)" filter="url(#glow)"/>
<rect x="970.9" y="99.3" width="41.5" height="16" rx="4" fill="url(#cost)" filter="url(#glow)"/>
<rect x="970.9" y="118.0" width="41.5" height="16" rx="4" fill="url(#cost)" filter="url(#glow)"/>
<rect x="970.9" y="136.7" width="41.5" height="16" rx="4" fill="url(#cost)" filter="url(#glow)"/>
<rect x="970.9" y="155.3" width="41.5" height="16" rx="4" fill="url(#cost)" filter="url(#glow)"/>
<rect x="970.9" y="174.0" width="41.5" height="16" rx="4" fill="url(#cost)" filter="url(#glow)"/>
<rect x="970.9" y="192.7" width="41.5" height="16" rx="4" fill="url(#cost)" filter="url(#glow)"/>
<rect x="970.9" y="211.3" width="41.5" height="16" rx="4" fill="url(#cost)" filter="url(#glow)"/>
<rect x="970.9" y="230.0" width="41.5" height="16" rx="4" fill="url(#cost)" filter="url(#glow)"/>
<rect x="970.9" y="248.7" width="41.5" height="16" rx="4" fill="url(#cost)" filter="url(#glow)"/>
<rect x="970.9" y="267.3" width="41.5" height="16" rx="4" fill="url(#cost)" filter="url(#glow)"/>
<rect x="970.9" y="286.0" width="41.5" height="16" rx="4" fill="url(#cost)" filter="url(#glow)"/>
<rect x="970.9" y="304.7" width="41.5" height="16" rx="4" fill="url(#cost)" filter="url(#glow)"/>
<rect x="970.9" y="323.3" width="41.5" height="16" rx="4" fill="url(#cost)" filter="url(#glow)"/>
<rect x="970.9" y="342.0" width="41.5" height="16" rx="4" fill="url(#cost)" filter="url(#glow)"/>
<line x1="991.7" y1="70.0" x2="991.7" y2="88.7" stroke="#A78BFA" stroke-width="1.6" opacity="0.7"/>
<line x1="991.7" y1="107.3" x2="991.7" y2="126.0" stroke="#A78BFA" stroke-width="1.6" opacity="0.7"/>
<line x1="991.7" y1="144.7" x2="991.7" y2="163.3" stroke="#A78BFA" stroke-width="1.6" opacity="0.7"/>
<line x1="991.7" y1="182.0" x2="991.7" y2="200.7" stroke="#A78BFA" stroke-width="1.6" opacity="0.7"/>
<line x1="991.7" y1="219.3" x2="991.7" y2="238.0" stroke="#A78BFA" stroke-width="1.6" opacity="0.7"/>
<line x1="991.7" y1="256.7" x2="991.7" y2="275.3" stroke="#A78BFA" stroke-width="1.6" opacity="0.7"/>
<line x1="991.7" y1="294.0" x2="991.7" y2="312.7" stroke="#A78BFA" stroke-width="1.6" opacity="0.7"/>
<line x1="991.7" y1="331.3" x2="991.7" y2="350.0" stroke="#A78BFA" stroke-width="1.6" opacity="0.7"/>
<rect x="1069.8" y="62.0" width="41.5" height="16" rx="4" fill="url(#mix)" filter="url(#glow)"/>
<rect x="1069.8" y="80.7" width="41.5" height="16" rx="4" fill="url(#mix)" filter="url(#glow)"/>
<rect x="1069.8" y="99.3" width="41.5" height="16" rx="4" fill="url(#mix)" filter="url(#glow)"/>
<rect x="1069.8" y="118.0" width="41.5" height="16" rx="4" fill="url(#mix)" filter="url(#glow)"/>
<rect x="1069.8" y="136.7" width="41.5" height="16" rx="4" fill="url(#mix)" filter="url(#glow)"/>
<rect x="1069.8" y="155.3" width="41.5" height="16" rx="4" fill="url(#mix)" filter="url(#glow)"/>
<rect x="1069.8" y="174.0" width="41.5" height="16" rx="4" fill="url(#mix)" filter="url(#glow)"/>
<rect x="1069.8" y="192.7" width="41.5" height="16" rx="4" fill="url(#mix)" filter="url(#glow)"/>
<rect x="1069.8" y="211.3" width="41.5" height="16" rx="4" fill="url(#mix)" filter="url(#glow)"/>
<rect x="1069.8" y="230.0" width="41.5" height="16" rx="4" fill="url(#mix)" filter="url(#glow)"/>
<rect x="1069.8" y="248.7" width="41.5" height="16" rx="4" fill="url(#mix)" filter="url(#glow)"/>
<rect x="1069.8" y="267.3" width="41.5" height="16" rx="4" fill="url(#mix)" filter="url(#glow)"/>
<rect x="1069.8" y="286.0" width="41.5" height="16" rx="4" fill="url(#mix)" filter="url(#glow)"/>
<rect x="1069.8" y="304.7" width="41.5" height="16" rx="4" fill="url(#mix)" filter="url(#glow)"/>
<rect x="1069.8" y="323.3" width="41.5" height="16" rx="4" fill="url(#mix)" filter="url(#glow)"/>
<rect x="1069.8" y="342.0" width="41.5" height="16" rx="4" fill="url(#mix)" filter="url(#glow)"/>
<text x="991.7" y="40.0" fill="#A78BFA" font-family="monospace" font-size="12" text-anchor="middle">U_C(g4)</text>
<text x="1090.6" y="40.0" fill="#67E8F9" font-family="monospace" font-size="12" text-anchor="middle">U_M(b4)</text>
</svg>
